{"accessors" : [{"bufferView" : 0, "byteOffset" : 0, "componentType" : 5123, "count" : 2328, "type" : "SCALAR", "max" : [2327], "min" : [0]}, {"bufferView" : 1, "byteOffset" : 0, "componentType" : 5126, "count" : 2328, "type" : "VEC3", "max" : [12.680000305175781, 101.5, 36.00703811645508], "min" : [-12, -1.2246469849340659E-16, -36.00703811645508], "name" : "POSITION"}, {"bufferView" : 1, "byteOffset" : 12, "componentType" : 5126, "count" : 2328, "type" : "VEC3", "max" : [1.0000044107437134, 1.000004529953003, 1.0000027418136597], "min" : [-1.0000044107437134, -1.000004529953003, -1.0000027418136597], "name" : "NORMAL"}], "asset" : {"generator" : "Aspose.3D 23.2", "version" : "2.0"}, "buffers" : [{"uri" : "data:application/octet-stream;base64,", "byteLength" : 60536}], "bufferViews" : [{"buffer" : 0, "byteOffset" : 0, "byteLength" : 4656, "target" : 34963}, {"buffer" : 0, "byteOffset" : 4660, "byteLength" : 55872, "byteStride" : 24, "target" : 34962}], "materials" : [{"name" : "mymaterial", "pbrMetallicRoughness" : {"baseColorFactor" : [1, 1, 1, 1], "metallicFactor" : 0, "roughnessFactor" : 0}, "emissiveFactor" : [0, 0, 0], "alphaMode" : "OPAQUE", "doubleSided" : false}], "meshes" : [{"primitives" : [{"attributes" : {"POSITION" : 1, "NORMAL" : 2}, "indices" : 0, "material" : 0, "mode" : 4}], "name" : ""}], "nodes" : [{"mesh" : 0, "name" : "node0"}], "scene" : 0, "scenes" : [{"nodes" : [0]}]}